<svg xmlns="http://www.w3.org/2000/svg" viewBox="0 0 100 100" width="500" height="500" class="illustration"><defs><style>.cls-1{fill:#69d7f9;}.cls-2{fill:none;stroke:#3a00ba;stroke-miterlimit:10;stroke-width:2px;}</style></defs><g id="Layer_5" data-name="Layer 5"><path class="cls-1" d="M55.42,12.76a6.93,6.93,0,0,1,2,5.24v7.75l3.17-2.84V15.38S59.35,12.76,55.42,12.76Z"></path><path class="cls-1" d="M57.27,45.38V84.11s-.21,2.18-1.52,2.73c0,0,4.36.54,5.12-2.18s0-37.42,0-37.42Z"></path><path class="cls-1" d="M21.17,80.73s-.22,2,7.2,2h22.9s6.55-.22,6.55-17V86.4H22.69S21.17,84.87,21.17,80.73Z"></path></g><g id="Layer_2" data-name="Layer 2"><path class="cls-2" d="M60.83,23.33V16.5a3.43,3.43,0,0,0-3.48-3.36H47.69"></path><path class="cls-2" d="M60.83,47.25V83.5a3.42,3.42,0,0,1-3.48,3.36H46"></path><path class="cls-2" d="M57.39,45V83.39a3.47,3.47,0,0,1-3.48,3.47H24.18a3.47,3.47,0,0,1-3.48-3.47V16.62a3.48,3.48,0,0,1,3.48-3.48H53.91a3.48,3.48,0,0,1,3.48,3.48v9"></path><line class="cls-2" x1="30.08" y1="82.01" x2="48.97" y2="82.01"></line><polygon class="cls-2" points="44.64 18.09 33.44 18.09 29.44 13.14 48.64 13.14 44.64 18.09"></polygon><line class="cls-2" x1="41.17" y1="15.61" x2="42.8" y2="15.61"></line><line class="cls-2" x1="34.8" y1="15.61" x2="39.94" y2="15.61"></line><path class="cls-2" d="M34.85,44.28V40a2.45,2.45,0,0,1,2.44-2.44H40.8A2.45,2.45,0,0,1,43.24,40v4.28"></path><rect class="cls-2" x="30.23" y="44.28" width="17.63" height="19.74"></rect><circle class="cls-2" cx="66.2" cy="35.29" r="13.11"></circle><path class="cls-2" d="M69.34,39.92a5.74,5.74,0,0,1,0-9.26"></path><path class="cls-2" d="M64.26,44.06a11.35,11.35,0,0,1-4.46-8.77,11.35,11.35,0,0,1,4.46-8.77"></path><path class="cls-2" d="M66.85,42a8.59,8.59,0,0,1-3.39-6.66,8.63,8.63,0,0,1,3.39-6.67"></path><circle class="cls-2" cx="71.52" cy="35.29" r="0.93"></circle></g></svg>